# xmcd CD database file
#
# Track frame offsets:
#	150
#	26616
#	69791
#	107438
#	132051
#	179393
#	243865
#	262791
#
# Disc length: 4099 seconds
#
# Revision: 0
# Processed by: cddbd v1.5.2PL0 Copyright (c) Steve Scherf et al.
# Submitted via: CDex 1.51
#
DISCID=57100108
DTITLE=Oberg Fischer Wolf and Gratkowski - after all
DYEAR=2006
DGENRE=Jazz
TTITLE0=starting all
TTITLE1=loose all
TTITLE2=al dente
TTITLE3=all swing
TTITLE4=all afters
TTITLE5=a LO! again
TTITLE6=falling
TTITLE7=before after all
EXTD=YEAR: 2006
EXTT0=
EXTT1=
EXTT2=
EXTT3=
EXTT4=
EXTT5=
EXTT6=
EXTT7=
PLAYORDER=
